<svg xmlns="http://www.w3.org/2000/svg" width="1400" height="820" viewBox="0 0 1400 820" role="img" aria-labelledby="title desc">
  <title id="title">Assay-Adtech v1 frontier baseline composite scores</title>
  <desc id="desc">Composite scores for Claude Opus 4.7, GPT 5.5, and Gemini 3.1 Pro Preview on the primary Assay-Adtech benchmark cluster, shown against a 100 percent scale. The header uses Smith, the Modelsmith sprite.</desc>
  <defs>
    <linearGradient id="page" x1="0" y1="0" x2="1" y2="1">
      <stop offset="0" stop-color="#f8f6f1"/>
      <stop offset="1" stop-color="#ebe4da"/>
    </linearGradient>
    <linearGradient id="card" x1="0" y1="0" x2="1" y2="1">
      <stop offset="0" stop-color="#ffffff"/>
      <stop offset="1" stop-color="#fbf7ef"/>
    </linearGradient>
    <filter id="shadow" x="-6%" y="-8%" width="112%" height="116%">
      <feDropShadow dx="0" dy="14" stdDeviation="16" flood-color="#2b2118" flood-opacity="0.15"/>
    </filter>
    <style>
      text { font-family: Arial, sans-serif; }
      .bg { fill: url(#page); }
      .card { fill: url(#card); stroke: #d8cfc4; stroke-width: 1.5; filter: url(#shadow); }
      .ink { fill: #1f252e; }
      .muted { fill: #526174; }
      .fine { fill: #756b62; }
      .tiny { fill: #756b62; font: 12px Arial, sans-serif; letter-spacing: 1px; }
      .brand { fill: #1f252e; font: 800 36px Arial, sans-serif; letter-spacing: 1.5px; }
      .headline { fill: #1f252e; font: 800 40px Arial, sans-serif; }
      .subhead { fill: #526174; font: 20px Arial, sans-serif; }
      .label { fill: #1f252e; font: 800 22px Arial, sans-serif; }
      .model { fill: #1f252e; font: 800 24px Arial, sans-serif; }
      .lab { fill: #526174; font: 15px Arial, sans-serif; }
      .score { fill: #1f252e; font: 800 30px Arial, sans-serif; }
      .scoreSmall { fill: #526174; font: 15px Arial, sans-serif; }
      .tick { fill: #756b62; font: 15px Arial, sans-serif; }
      .grid { stroke: #e3d9ce; stroke-width: 1; }
      .axis { stroke: #a89b8f; stroke-width: 1.4; }
      .track { fill: #ebe5dc; }
      .ci { stroke: #27313f; stroke-width: 2.2; stroke-linecap: round; opacity: 0.78; }
      .anthropic { fill: #c96423; }
      .openai { fill: #0f766e; }
      .google { fill: #3467d6; }
    </style>
  </defs>

  <rect class="bg" width="1400" height="820"/>
  <rect class="card" x="44" y="38" width="1312" height="744" rx="24"/>

  <g transform="translate(80 76)">
    <svg x="6" y="0" width="63" height="76" viewBox="0 0 40 48" shape-rendering="crispEdges" fill="none">
      <rect width="40" height="48" fill="#F6F3EC"/>
      <rect x="14" y="3" width="12" height="3" fill="#0E0F11"/>
      <rect x="11" y="6" width="18" height="2" fill="#0E0F11"/>
      <rect x="11" y="8" width="18" height="1" fill="#3E4148"/>
      <rect x="14" y="9" width="12" height="7" fill="#FBF8F2"/>
      <rect x="14" y="14" width="12" height="2" fill="#EFEBE1"/>
      <rect x="16" y="11" width="2" height="2" fill="#0E0F11"/>
      <rect x="22" y="11" width="2" height="2" fill="#0E0F11"/>
      <rect x="19" y="14" width="2" height="1" fill="#3E4148"/>
      <rect x="18" y="16" width="4" height="1" fill="#FBF8F2"/>
      <rect x="11" y="17" width="18" height="2" fill="#B45A1E"/>
      <rect x="10" y="19" width="20" height="11" fill="#B45A1E"/>
      <rect x="11" y="19" width="1" height="10" fill="#8A3F11"/>
      <rect x="28" y="19" width="1" height="10" fill="#8A3F11"/>
      <rect x="19" y="22" width="2" height="1" fill="#0E0F11"/>
      <rect x="12" y="30" width="7" height="6" fill="#3E4148"/>
      <rect x="21" y="30" width="7" height="6" fill="#3E4148"/>
      <rect x="10" y="36" width="10" height="3" fill="#0E0F11"/>
      <rect x="20" y="36" width="10" height="3" fill="#0E0F11"/>
      <rect x="10" y="36" width="10" height="1" fill="#3E4148"/>
      <rect x="20" y="36" width="10" height="1" fill="#3E4148"/>
      <rect x="7" y="19" width="3" height="6" fill="#B45A1E"/>
      <rect x="7" y="25" width="3" height="4" fill="#FBF8F2"/>
      <rect x="30" y="19" width="3" height="6" fill="#B45A1E"/>
      <rect x="30" y="25" width="3" height="4" fill="#FBF8F2"/>
    </svg>
    <text class="brand" x="98" y="34">MODELSMITH</text>
    <text class="tiny" x="101" y="63">ASSAY-ADTECH V1 FRONTIER BASELINES</text>
  </g>

  <g transform="translate(842 70)">
    <rect x="0" y="0" width="450" height="112" rx="16" fill="#fbfaf7" stroke="#ddd3c9"/>
    <text class="tiny" x="24" y="30">PRIMARY BENCHMARK CLUSTER</text>
    <text class="label" x="24" y="62">Assay-Adtech</text>
    <text class="lab" x="24" y="88">344 governed scenarios, no tools</text>
    <line x1="314" y1="24" x2="314" y2="88" stroke="#ddd3c9"/>
    <text class="label" x="382" y="56" text-anchor="middle">100%</text>
    <text class="lab" x="382" y="80" text-anchor="middle">ceiling scale</text>
  </g>

  <text class="headline" x="80" y="224">Frontier baseline scores against a 100% ceiling</text>
  <text class="subhead" x="80" y="256">Composite scores from the current Modelsmith proof package for scenario-set hash 162ff7fcd8ce.</text>

  <g transform="translate(80 326)">
    <line class="grid" x1="430" y1="0" x2="430" y2="296"/>
    <line class="grid" x1="610" y1="0" x2="610" y2="296"/>
    <line class="grid" x1="790" y1="0" x2="790" y2="296"/>
    <line class="grid" x1="970" y1="0" x2="970" y2="296"/>
    <line class="grid" x1="1150" y1="0" x2="1150" y2="296"/>
    <line class="axis" x1="430" y1="-24" x2="1150" y2="-24"/>
    <text class="tick" x="430" y="-34" text-anchor="middle">0</text>
    <text class="tick" x="610" y="-34" text-anchor="middle">25</text>
    <text class="tick" x="790" y="-34" text-anchor="middle">50</text>
    <text class="tick" x="970" y="-34" text-anchor="middle">75</text>
    <text class="tick" x="1150" y="-34" text-anchor="middle">100</text>

    <g transform="translate(0 24)">
      <circle cx="28" cy="28" r="28" fill="#c96423"/>
      <text x="28" y="37" text-anchor="middle" fill="#ffffff" font-size="28" font-weight="800">A</text>
      <text class="model" x="78" y="20">Claude Opus 4.7</text>
      <text class="lab" x="78" y="46">Anthropic</text>
      <rect class="track" x="430" y="5" width="720" height="42" rx="10"/>
      <rect class="anthropic" x="430" y="5" width="299" height="42" rx="10"/>
      <line class="ci" x1="692" y1="26" x2="767" y2="26"/>
      <line class="ci" x1="692" y1="17" x2="692" y2="35"/>
      <line class="ci" x1="767" y1="17" x2="767" y2="35"/>
      <text class="score" x="1190" y="35">41.6%</text>
      <text class="scoreSmall" x="430" y="72">95% CI 36.3 to 46.8</text>
    </g>

    <g transform="translate(0 132)">
      <circle cx="28" cy="28" r="28" fill="#0f766e"/>
      <path d="M17 28c0-7 5-12 11-12s11 5 11 12-5 12-11 12-11-5-11-12zm6 0c0 4 2 7 5 7s5-3 5-7-2-7-5-7-5 3-5 7z" fill="#ffffff"/>
      <text class="model" x="78" y="20">GPT 5.5</text>
      <text class="lab" x="78" y="46">OpenAI</text>
      <rect class="track" x="430" y="5" width="720" height="42" rx="10"/>
      <rect class="openai" x="430" y="5" width="291" height="42" rx="10"/>
      <line class="ci" x1="683" y1="26" x2="759" y2="26"/>
      <line class="ci" x1="683" y1="17" x2="683" y2="35"/>
      <line class="ci" x1="759" y1="17" x2="759" y2="35"/>
      <text class="score" x="1190" y="35">40.4%</text>
      <text class="scoreSmall" x="430" y="72">95% CI 35.2 to 45.6</text>
    </g>

    <g transform="translate(0 240)">
      <circle cx="28" cy="28" r="28" fill="#3467d6"/>
      <path d="M28 11l4.7 11.3L44 27l-11.3 4.7L28 43l-4.7-11.3L12 27l11.3-4.7z" fill="#ffffff"/>
      <text class="model" x="78" y="20">Gemini 3.1 Pro Preview</text>
      <text class="lab" x="78" y="46">Google</text>
      <rect class="track" x="430" y="5" width="720" height="42" rx="10"/>
      <rect class="google" x="430" y="5" width="268" height="42" rx="10"/>
      <line class="ci" x1="662" y1="26" x2="736" y2="26"/>
      <line class="ci" x1="662" y1="17" x2="662" y2="35"/>
      <line class="ci" x1="736" y1="17" x2="736" y2="35"/>
      <text class="score" x="1190" y="35">37.2%</text>
      <text class="scoreSmall" x="430" y="72">95% CI 32.3 to 42.4</text>
    </g>
  </g>

  <g transform="translate(80 690)">
    <rect x="0" y="0" width="1216" height="58" rx="14" fill="#f6f1e8" stroke="#ded4c7"/>
    <text class="fine" x="24" y="24" font-size="14">Bars use a 0 to 100 percent scale. The unfilled track is the remaining gap to the benchmark ceiling.</text>
    <text class="fine" x="24" y="45" font-size="14">Source: Modelsmith production-baseline proof package for Assay-Adtech v1.8.0-rc.4. Public claims must follow the release contract.</text>
  </g>
</svg>
